<svg id="EZStart" xmlns="http://www.w3.org/2000/svg" viewBox="0 0 512 512"><defs><style>.cls-1{fill:#f74545;}.cls-2{fill:#fff;}</style></defs><rect class="cls-1" width="512" height="512" rx="256"/><g id="EZ"><path class="cls-2" d="M149.48,275.69V310.6H249.66l-.86,1.11a27.32,27.32,0,0,0-5.7,16.73c0,15.1,13.43,27.56,13.43,27.56H93.61V191.88h55.87v41.9H304.34L272,275.69Z" transform="translate(0 0)"/><path class="cls-2" d="M264,311.71l83-107.35v-1.11l-253.34-.77V156l294.2.78a27.26,27.26,0,0,1,27.27,27.27h0a27.28,27.28,0,0,1-5.66,16.63L326.67,308.2v1.11h68.48a23.24,23.24,0,0,1,23.24,23.24h0a23.24,23.24,0,0,1-23.24,23.23H285.62a27.34,27.34,0,0,1-27.35-27.34h0A27.36,27.36,0,0,1,264,311.71Z" transform="translate(0 0)"/></g></svg>